<?xml version="1.0" encoding="UTF-8"?>
<svg version="1.1" xmlns="http://www.w3.org/2000/svg" width="860" height="600">
<path d="M0 0 C283.8 0 567.6 0 860 0 C860 198 860 396 860 600 C576.2 600 292.4 600 0 600 C0 402 0 204 0 0 Z " fill="#4EACE7" transform="translate(0,0)"/>
<path d="M0 0 C15.51 0 31.02 0 47 0 C47 4.95 47 9.9 47 15 C51.95 15 56.9 15 62 15 C62 20.28 62 25.56 62 31 C66.95 31 71.9 31 77 31 C77 41.23 77 51.46 77 62 C82.28 62 87.56 62 93 62 C93 56.72 93 51.44 93 46 C97.25421714 45.9770868 101.50822157 45.95716111 105.76245117 45.94506836 C107.21070073 45.94002899 108.65894517 45.93319747 110.10717773 45.92456055 C112.18474588 45.91247753 114.26224697 45.90676789 116.33984375 45.90234375 C117.59144287 45.89710693 118.84304199 45.89187012 120.13256836 45.88647461 C123 46 123 46 124 47 C124.07320163 49.5327765 124.09227569 52.03103918 124.0625 54.5625 C124.041875 57.016875 124.02125 59.47125 124 62 C129.28 62 134.56 62 140 62 C140 66.95 140 71.9 140 77 C144.95 77 149.9 77 155 77 C155 72.05 155 67.1 155 62 C165.23 62 175.46 62 186 62 C186 66.95 186 71.9 186 77 C196.23 77 206.46 77 217 77 C217 82.28 217 87.56 217 93 C221.95 93 226.9 93 232 93 C232 97.95 232 102.9 232 108 C237.28 108 242.56 108 248 108 C248 113.28 248 118.56 248 124 C125.24 124 2.48 124 -124 124 C-124 118.72 -124 113.44 -124 108 C-119.05 108 -114.1 108 -109 108 C-109 103.05 -109 98.1 -109 93 C-103.72 93 -98.44 93 -93 93 C-93 82.77 -93 72.54 -93 62 C-88.05 62 -83.1 62 -78 62 C-78.0395679 57.10846529 -78.0395679 57.10846529 -78.09008789 52.21704102 C-78.09724913 50.47778283 -78.05024702 48.73854696 -78 47 C-77 46 -77 46 -74.04077148 45.88647461 C-72.74727783 45.89171143 -71.45378418 45.89694824 -70.12109375 45.90234375 C-69.09110008 45.90446617 -69.09110008 45.90446617 -68.04029846 45.90663147 C-65.83932199 45.91224521 -63.63844591 45.92479993 -61.4375 45.9375 C-59.94856917 45.94251324 -58.45963676 45.94707645 -56.97070312 45.95117188 C-53.31373195 45.96136979 -49.65697883 45.98094221 -46 46 C-46 51.28 -46 56.56 -46 62 C-41.05 62 -36.1 62 -31 62 C-31 51.77 -31 41.54 -31 31 C-25.72 31 -20.44 31 -15 31 C-15 26.05 -15 21.1 -15 16 C-10.05 16 -5.1 16 0 16 C0 10.72 0 5.44 0 0 Z " fill="#DBECFA" transform="translate(217,137)"/>
<path d="M0 0 C20.46 0 40.92 0 62 0 C62 5.28 62 10.56 62 16 C67.28 16 72.56 16 78 16 C78 20.95 78 25.9 78 31 C82.95 31 87.9 31 93 31 C93 36.28 93 41.56 93 47 C103.23 47 113.46 47 124 47 C124 41.72 124 36.44 124 31 C134.23 31 144.46 31 155 31 C155 36.28 155 41.56 155 47 C160.28 47 165.56 47 171 47 C171 51.95 171 56.9 171 62 C181.23 62 191.46 62 202 62 C202 67.28 202 72.56 202 78 C206.95 78 211.9 78 217 78 C217 82.95 217 87.9 217 93 C221.89153471 92.9604321 221.89153471 92.9604321 226.78295898 92.90991211 C228.52221717 92.90275087 230.26145304 92.94975298 232 93 C235.77859468 96.77859468 233 103.65626015 233 109 C100.01 109 -32.98 109 -170 109 C-170 103.72 -170 98.44 -170 93 C-165.05 93 -160.1 93 -155 93 C-155 88.05 -155 83.1 -155 78 C-144.77 78 -134.54 78 -124 78 C-124 72.72 -124 67.44 -124 62 C-118.72 62 -113.44 62 -108 62 C-108 57.05 -108 52.1 -108 47 C-97.77 47 -87.54 47 -77 47 C-77 51.95 -77 56.9 -77 62 C-72.05 62 -67.1 62 -62 62 C-62 67.28 -62 72.56 -62 78 C-56.72 78 -51.44 78 -46 78 C-46 72.72 -46 67.44 -46 62 C-41.05 62 -36.1 62 -31 62 C-31 51.77 -31 41.54 -31 31 C-25.72 31 -20.44 31 -15 31 C-15 26.05 -15 21.1 -15 16 C-10.05 16 -5.1 16 0 16 C0 10.72 0 5.44 0 0 Z " fill="#E1F1FB" transform="translate(577,356)"/>
<path d="M0 0 C15.18 0 30.36 0 46 0 C46 4.95 46 9.9 46 15 C50.95 15 55.9 15 61 15 C61 20.28 61 25.56 61 31 C76.51 31 92.02 31 108 31 C108 35.95 108 40.9 108 46 C112.95 46 117.9 46 123 46 C123 41.05 123 36.1 123 31 C128.28 31 133.56 31 139 31 C139 25.72 139 20.44 139 15 C149.23 15 159.46 15 170 15 C170 20.28 170 25.56 170 31 C174.95 31 179.9 31 185 31 C185 35.95 185 40.9 185 46 C190.28 46 195.56 46 201 46 C201 51.28 201 56.56 201 62 C206.28 62 211.56 62 217 62 C217 72.23 217 82.46 217 93 C124.93 93 32.86 93 -62 93 C-62 82.77 -62 72.54 -62 62 C-57.05 62 -52.1 62 -47 62 C-47 56.72 -47 51.44 -47 46 C-36.77 46 -26.54 46 -16 46 C-16 35.77 -16 25.54 -16 15 C-10.72 15 -5.44 15 0 15 C0 10.05 0 5.1 0 0 Z " fill="#DAECFA" transform="translate(113,372)"/>
<path d="M0 0 C10.56 0 21.12 0 32 0 C32 4.95 32 9.9 32 15 C36.95 15 41.9 15 47 15 C47 20.28 47 25.56 47 31 C52.28 31 57.56 31 63 31 C63 35.95 63 40.9 63 46 C67.95 46 72.9 46 78 46 C78 41.05 78 36.1 78 31 C88.23 31 98.46 31 109 31 C109 35.95 109 40.9 109 46 C114.28 46 119.56 46 125 46 C125 51.28 125 56.56 125 62 C129.95 62 134.9 62 140 62 C140 72.23 140 82.46 140 93 C68.39 93 -3.22 93 -77 93 C-77 87.72 -77 82.44 -77 77 C-81.95 77 -86.9 77 -92 77 C-92 66.77 -92 56.54 -92 46 C-81.77 46 -71.54 46 -61 46 C-61 41.05 -61 36.1 -61 31 C-45.82 31 -30.64 31 -15 31 C-15 25.72 -15 20.44 -15 15 C-10.05 15 -5.1 15 0 15 C0 10.05 0 5.1 0 0 Z " fill="#DEEEFA" transform="translate(627,168)"/>
<path d="M0 0 C5.28 0 10.56 0 16 0 C15.67 5.28 15.34 10.56 15 16 C35.79 16 56.58 16 78 16 C78 20.62 78 25.24 78 30 C92.85 30.495 92.85 30.495 108 31 C108 26.05 108 21.1 108 16 C128.46 16 148.92 16 170 16 C170 20.95 170 25.9 170 31 C190.46 31 210.92 31 232 31 C232 28.03 232 25.06 232 22 C232.66 20.02 233.32 18.04 234 16 C238.29 16 242.58 16 247 16 C247 11.38 247 6.76 247 2 C247.33 2 247.66 2 248 2 C248 6.62 248 11.24 248 16 C253.28 16 258.56 16 264 16 C264 26.23 264 36.46 264 47 C171.93 47 79.86 47 -15 47 C-15 36.77 -15 26.54 -15 16 C-10.05 16 -5.1 16 0 16 C0 10.72 0 5.44 0 0 Z " fill="#B9DDF2" transform="translate(66,418)"/>
<path d="M0 0 C10.23 0 20.46 0 31 0 C31 5.28 31 10.56 31 16 C35.95 16 40.9 16 46 16 C46 20.95 46 25.9 46 31 C50.89153471 30.9604321 50.89153471 30.9604321 55.78295898 30.90991211 C57.52221717 30.90275087 59.26145304 30.94975298 61 31 C64.77859468 34.77859468 62 41.65626015 62 47 C-70.99 47 -203.98 47 -341 47 C-341 41.72 -341 36.44 -341 31 C-336.05 31 -331.1 31 -326 31 C-326 26.05 -326 21.1 -326 16 C-315.77 16 -305.54 16 -295 16 C-295 20.62 -295 25.24 -295 30 C-193.03 30.33 -91.06 30.66 14 31 C14 25.74890778 13.84512516 21.95001881 13 17 C14 16 14 16 17.37890625 15.90234375 C18.77347492 15.90808576 20.16801597 15.92109772 21.5625 15.9375 C24.016875 15.958125 26.47125 15.97875 29 16 C29.33 11.05 29.66 6.1 30 1 C20.1 1 10.2 1 0 1 C0 0.67 0 0.34 0 0 Z " fill="#BADDF1" transform="translate(748,418)"/>
<path d="M0 0 C15.51 0 31.02 0 47 0 C47 4.95 47 9.9 47 15 C51.95 15 56.9 15 62 15 C62 20.28 62 25.56 62 31 C66.95 31 71.9 31 77 31 C77.33 41.23 77.66 51.46 78 62 C84.93 62.495 84.93 62.495 92 63 C93.81119819 64.81119819 93.21518878 67.49781392 93.25 69.9375 C93.28867187 71.55978516 93.28867187 71.55978516 93.328125 73.21484375 C93.16570312 74.59349609 93.16570312 74.59349609 93 76 C89.42286476 78.38475683 88.05747787 78.18682405 83.8359375 78.01171875 C82.63195312 77.96466797 81.42796875 77.91761719 80.1875 77.86914062 C78.929375 77.80919922 77.67125 77.74925781 76.375 77.6875 C75.10914063 77.63916016 73.84328125 77.59082031 72.5390625 77.54101562 C63.14278274 77.14278274 63.14278274 77.14278274 62 76 C61.92728259 73.64686445 61.91629132 71.29166332 61.9375 68.9375 C61.94652344 67.64714844 61.95554687 66.35679687 61.96484375 65.02734375 C61.98224609 63.52880859 61.98224609 63.52880859 62 62 C61.08476562 62.01160156 60.16953125 62.02320313 59.2265625 62.03515625 C57.44378906 62.04869141 57.44378906 62.04869141 55.625 62.0625 C54.44164062 62.07410156 53.25828125 62.08570313 52.0390625 62.09765625 C49 62 49 62 47 61 C47 56.38 47 51.76 47 47 C41.72 46.67 36.44 46.34 31 46 C31 41.05 31 36.1 31 31 C26.05 31 21.1 31 16 31 C16.04125 33.10375 16.0825 35.2075 16.125 37.375 C16.1953125 40.9609375 16.1953125 40.9609375 16 44 C13.20822431 46.79177569 11.36816428 46.31213484 7.4609375 46.4140625 C6.28837402 46.44967285 5.11581055 46.4852832 3.90771484 46.52197266 C2.41191895 46.55597168 0.91612305 46.5899707 -0.625 46.625 C-7.740625 46.810625 -7.740625 46.810625 -15 47 C-15 56.57 -15 66.14 -15 76 C-17.3300998 77.1650499 -18.67247077 77.1209358 -21.26611328 77.11352539 C-22.58725632 77.11341209 -22.58725632 77.11341209 -23.93508911 77.11329651 C-24.88721283 77.10813522 -25.83933655 77.10297394 -26.8203125 77.09765625 C-27.79410858 77.0962413 -28.76790466 77.09482635 -29.77120972 77.09336853 C-32.88917073 77.08775973 -36.0070606 77.07520573 -39.125 77.0625 C-41.23567605 77.05748613 -43.34635322 77.05292303 -45.45703125 77.04882812 C-50.63804835 77.03778744 -55.8190121 77.02051689 -61 77 C-61 82.28 -61 87.56 -61 93 C-66.28 93 -71.56 93 -77 93 C-77 97.95 -77 102.9 -77 108 C-82.28 108 -87.56 108 -93 108 C-93 92.82 -93 77.64 -93 62 C-88.05 62 -83.1 62 -78 62 C-78.0395679 57.10846529 -78.0395679 57.10846529 -78.09008789 52.21704102 C-78.09724913 50.47778283 -78.05024702 48.73854696 -78 47 C-77 46 -77 46 -74.04077148 45.88647461 C-72.74727783 45.89171143 -71.45378418 45.89694824 -70.12109375 45.90234375 C-69.09110008 45.90446617 -69.09110008 45.90446617 -68.04029846 45.90663147 C-65.83932199 45.91224521 -63.63844591 45.92479993 -61.4375 45.9375 C-59.94856917 45.94251324 -58.45963676 45.94707645 -56.97070312 45.95117188 C-53.31373195 45.96136979 -49.65697883 45.98094221 -46 46 C-46 51.28 -46 56.56 -46 62 C-41.05 62 -36.1 62 -31 62 C-31 51.77 -31 41.54 -31 31 C-25.72 31 -20.44 31 -15 31 C-15 26.05 -15 21.1 -15 16 C-10.05 16 -5.1 16 0 16 C0 10.72 0 5.44 0 0 Z " fill="#EEF9FD" transform="translate(217,137)"/>
<path d="M0 0 C5.28 0 10.56 0 16 0 C16 4.95 16 9.9 16 15 C108.07 14.67 200.14 14.34 295 14 C295 9.38 295 4.76 295 0 C310.18 0 325.36 0 341 0 C341 4.95 341 9.9 341 15 C346.28 15 351.56 15 357 15 C357 20.28 357 25.56 357 31 C234.24 31 111.48 31 -15 31 C-15 25.72 -15 20.44 -15 15 C-10.05 15 -5.1 15 0 15 C0 10.05 0 5.1 0 0 Z " fill="#B8DEF3" transform="translate(108,230)"/>
<path d="M0 0 C9.9 0 19.8 0 30 0 C30 0.33 30 0.66 30 1 C25.05 1 20.1 1 15 1 C15 5.95 15 10.9 15 16 C19.95 16 24.9 16 30 16 C30.33 15.34 30.66 14.68 31 14 C31 19.61 31 25.22 31 31 C56.41 31 81.82 31 108 31 C107.505 23.575 107.505 23.575 107 16 C127.79 16 148.58 16 170 16 C170 20.95 170 25.9 170 31 C174.95 31 179.9 31 185 31 C185 26.05 185 21.1 185 16 C194.2699169 12.9100277 206.35383969 15.27879175 216 16 C216 11.05 216 6.1 216 1 C211.05 1 206.1 1 201 1 C201 0.67 201 0.34 201 0 C206.28 0 211.56 0 217 0 C217 5.28 217 10.56 217 16 C221.95 16 226.9 16 232 16 C232 26.23 232 36.46 232 47 C160.39 47 88.78 47 15 47 C15 41.72 15 36.44 15 31 C10.05 31 5.1 31 0 31 C0 20.77 0 10.54 0 0 Z " fill="#B7DEF3" transform="translate(535,214)"/>
<path d="M0 0 C10.56 0 21.12 0 32 0 C32 4.95 32 9.9 32 15 C36.95 15 41.9 15 47 15 C47 20.28 47 25.56 47 31 C31.82 31 16.64 31 1 31 C1 35.95 1 40.9 1 46 C-29.69 46.495 -29.69 46.495 -61 47 C-61 41.72 -61 36.44 -61 31 C-45.82 31 -30.64 31 -15 31 C-15 25.72 -15 20.44 -15 15 C-10.05 15 -5.1 15 0 15 C0 10.05 0 5.1 0 0 Z " fill="#EDF9FD" transform="translate(627,168)"/>
<path d="M0 0 C15.18 0 30.36 0 46 0 C46 5.61 46 11.22 46 17 C50.29 17 54.58 17 59 17 C59.09765625 27.05859375 59.09765625 27.05859375 59 30 C58 31 58 31 56.24729919 31.12025452 C55.48562943 31.11803391 54.72395966 31.11581329 53.93920898 31.11352539 C53.07839218 31.11344986 52.21757538 31.11337433 51.33067322 31.11329651 C50.39526199 31.10813522 49.45985077 31.10297394 48.49609375 31.09765625 C47.54307877 31.0962413 46.59006378 31.09482635 45.60816956 31.09336853 C42.55124835 31.08775152 39.49439923 31.07519616 36.4375 31.0625 C34.37044376 31.05748719 32.30338638 31.05292391 30.23632812 31.04882812 C25.15752412 31.03777656 20.0787743 31.02050055 15 31 C15 35.95 15 40.9 15 46 C5.1 46 -4.8 46 -15 46 C-15 36.1 -15 26.2 -15 16 C-10.05 16 -5.1 16 0 16 C0 10.72 0 5.44 0 0 Z " fill="#F0F9FD" transform="translate(113,372)"/>
<path d="M0 0 C1.07056641 -0.00128906 2.14113281 -0.00257813 3.24414062 -0.00390625 C4.93506836 0.00189453 4.93506836 0.00189453 6.66015625 0.0078125 C8.3452832 0.00201172 8.3452832 0.00201172 10.06445312 -0.00390625 C11.67223633 -0.00197266 11.67223633 -0.00197266 13.3125 0 C14.79544556 0.00169189 14.79544556 0.00169189 16.30834961 0.00341797 C18.72265625 0.1328125 18.72265625 0.1328125 20.72265625 1.1328125 C21.32879534 5.11846296 21.4683036 9.10556219 21.72265625 13.1328125 C27.33265625 13.4628125 32.94265625 13.7928125 38.72265625 14.1328125 C38.72265625 19.4128125 38.72265625 24.6928125 38.72265625 30.1328125 C48.62265625 30.1328125 58.52265625 30.1328125 68.72265625 30.1328125 C68.72265625 35.4128125 68.72265625 40.6928125 68.72265625 46.1328125 C62.33200953 45.87233346 55.94166141 45.60569824 49.55151367 45.33325195 C47.37580403 45.24137095 45.20002156 45.15119869 43.02416992 45.06274414 C39.90392845 44.93560478 36.78399709 44.8024032 33.6640625 44.66796875 C32.68490372 44.62938248 31.70574493 44.5907962 30.69691467 44.55104065 C29.79605637 44.51107468 28.89519806 44.4711087 27.96704102 44.42993164 C26.77124168 44.37996788 26.77124168 44.37996788 25.55128479 44.32899475 C23.72265625 44.1328125 23.72265625 44.1328125 22.72265625 43.1328125 C22.64993884 40.77967695 22.63894757 38.42447582 22.66015625 36.0703125 C22.66917969 34.77996094 22.67820312 33.48960937 22.6875 32.16015625 C22.69910156 31.16113281 22.71070313 30.16210938 22.72265625 29.1328125 C21.34980469 29.15021484 21.34980469 29.15021484 19.94921875 29.16796875 C18.16644531 29.18150391 18.16644531 29.18150391 16.34765625 29.1953125 C15.16429687 29.20691406 13.9809375 29.21851563 12.76171875 29.23046875 C9.72265625 29.1328125 9.72265625 29.1328125 7.72265625 28.1328125 C7.72265625 23.5128125 7.72265625 18.8928125 7.72265625 14.1328125 C3.10265625 14.1328125 -1.51734375 14.1328125 -6.27734375 14.1328125 C-6.375 4.07421875 -6.375 4.07421875 -6.27734375 1.1328125 C-4.56649874 -0.57803251 -2.33374282 0.00266561 0 0 Z " fill="#F0FAFC" transform="translate(709.27734375,388.8671875)"/>
<path d="M0 0 C1.12019531 -0.00128906 2.24039062 -0.00257813 3.39453125 -0.00390625 C4.57402344 -0.00003906 5.75351562 0.00382812 6.96875 0.0078125 C8.73798828 0.00201172 8.73798828 0.00201172 10.54296875 -0.00390625 C12.22326172 -0.00197266 12.22326172 -0.00197266 13.9375 0 C14.97326172 0.00112793 16.00902344 0.00225586 17.07617188 0.00341797 C19.46875 0.1328125 19.46875 0.1328125 20.46875 1.1328125 C20.54122337 4.20840113 20.46490439 7.27196653 20.40625 10.34765625 C20.26946538 13.09010559 20.26946538 13.09010559 21.46875 15.1328125 C26.41875 15.1328125 31.36875 15.1328125 36.46875 15.1328125 C36.13875 19.7528125 35.80875 24.3728125 35.46875 29.1328125 C6.75875 29.6278125 6.75875 29.6278125 -22.53125 30.1328125 C-22.53125 17.1328125 -22.53125 17.1328125 -20.53125 15.1328125 C-18 14.75390625 -18 14.75390625 -15.03125 14.5703125 C-11.13526365 14.39761904 -11.13526365 14.39761904 -7.53125 13.1328125 C-7.10018307 10.34945012 -7.10018307 10.34945012 -6.96875 7.1328125 C-6.55700716 0.00714049 -6.55700716 0.00714049 0 0 Z " fill="#F0FAFC" transform="translate(260.53125,388.8671875)"/>
<path d="M0 0 C1.16909562 3.60471151 1.00654604 6.80410048 0.75 10.5625 C0.64945312 12.26599609 0.64945312 12.26599609 0.546875 14.00390625 C-0.02354914 17.12901564 -0.5136364 18.12185976 -3 20 C-3.99 19.67 -4.98 19.34 -6 19 C-7.91475544 18.9048221 -9.83288666 18.87013423 -11.75 18.875 C-13.25820313 18.87113281 -13.25820313 18.87113281 -14.796875 18.8671875 C-17.95296736 18.92694953 -17.95296736 18.92694953 -20.83346367 19.5003643 C-26.80132617 20.37157083 -32.85153579 20.13719171 -38.8677063 20.12698364 C-40.28911595 20.12813659 -41.71052531 20.12972528 -43.13193405 20.13171089 C-47.02861504 20.13588028 -50.9252715 20.13382431 -54.82195258 20.13072467 C-59.02782847 20.12846111 -63.23370015 20.13195493 -67.4395752 20.13470459 C-75.67468153 20.13915078 -83.90977875 20.13819099 -92.14488544 20.13529195 C-98.83661053 20.13303371 -105.52833307 20.13272722 -112.22005844 20.13381577 C-113.17239066 20.133969 -114.12472289 20.13412223 -115.10591366 20.13428011 C-117.04052227 20.13459983 -118.97513087 20.13492404 -120.90973948 20.1352527 C-139.04902617 20.13810404 -157.18830781 20.13482572 -175.32759367 20.12945233 C-190.89662097 20.12498317 -206.46564081 20.12576182 -222.03466797 20.13037109 C-240.11208433 20.13572047 -258.18949626 20.1378309 -276.26691329 20.13475883 C-278.19379989 20.13444028 -280.12068649 20.13412591 -282.04757309 20.13381577 C-283.46970128 20.13358435 -283.46970128 20.13358435 -284.92055932 20.13334826 C-291.60634366 20.13248431 -298.29212519 20.13394335 -304.97790909 20.13629532 C-313.12244087 20.13909747 -321.266963 20.13834618 -329.41149367 20.13301457 C-333.56801407 20.13038343 -337.72451838 20.12936264 -341.88103867 20.13266373 C-345.68426815 20.1356386 -349.48746661 20.13401391 -353.29069327 20.12868617 C-355.32168776 20.1270361 -357.35268439 20.13030893 -359.38367665 20.13374341 C-361.18956629 20.12983178 -361.18956629 20.12983178 -363.03193855 20.12584114 C-364.07123579 20.12567879 -365.11053303 20.12551644 -366.18132412 20.12534916 C-368.89132947 20.00483268 -371.36118341 19.61055767 -374 19 C-374 18.34 -374 17.68 -374 17 C-251.24 17 -128.48 17 -2 17 C-2 11.72 -2 6.44 -2 1 C-1.34 0.67 -0.68 0.34 0 0 Z " fill="#56A9E3" transform="translate(467,244)"/>
<path d="M0 0 C4.95 0 9.9 0 15 0 C15 4.95 15 9.9 15 15 C19.89153471 14.9604321 19.89153471 14.9604321 24.78295898 14.90991211 C26.52221717 14.90275087 28.26145304 14.94975298 30 15 C33.77859468 18.77859468 31 25.65626015 31 31 C-101.99 31 -234.98 31 -372 31 C-372 25.72 -372 20.44 -372 15 C-367.05 15 -362.1 15 -357 15 C-357 15.33 -357 15.66 -357 16 C-363.435 16.495 -363.435 16.495 -370 17 C-370.33 21.29 -370.66 25.58 -371 30 C-370.34 29.67 -369.68 29.34 -369 29 C-366.68367608 28.89305649 -364.36418839 28.85325647 -362.04542542 28.84178162 C-360.95479584 28.83437438 -360.95479584 28.83437438 -359.84213334 28.82681751 C-357.38246951 28.81136156 -354.92283221 28.80305044 -352.46313477 28.79467773 C-350.69362986 28.78509095 -348.92412719 28.77508313 -347.15462685 28.76468754 C-342.28111814 28.73739814 -337.40759974 28.71646071 -332.53405547 28.69668961 C-327.30461397 28.67454548 -322.07519979 28.64708339 -316.84577942 28.6204834 C-306.63757561 28.5696185 -296.42935324 28.52481367 -286.22111136 28.48234785 C-277.95536137 28.44790835 -269.68962391 28.41123292 -261.42388916 28.37332153 C-164.94922691 27.93314942 -68.4754378 27.8845317 28 28 C28 24.37 28 20.74 28 17 C23.38 17 18.76 17 14 17 C13.67 12.05 13.34 7.1 13 2 C9.04 2 5.08 2 1 2 C0.67 1.34 0.34 0.68 0 0 Z " fill="#9EDBFB" transform="translate(779,434)"/>
<path d="M0 0 C3.96 0 7.92 0 12 0 C12 10.23 12 20.46 12 31 C-80.07 31 -172.14 31 -267 31 C-267 21.1 -267 11.2 -267 1 C-266.67 1 -266.34 1 -266 1 C-265.97494385 1.6705542 -265.9498877 2.3411084 -265.92407227 3.03198242 C-265.80769199 6.0839959 -265.68515652 9.13573258 -265.5625 12.1875 C-265.52318359 13.24259766 -265.48386719 14.29769531 -265.44335938 15.38476562 C-265.40146484 16.40634766 -265.35957031 17.42792969 -265.31640625 18.48046875 C-265.27974854 19.41785889 -265.24309082 20.35524902 -265.20532227 21.32104492 C-265.00359476 23.9530971 -264.53901035 26.41920958 -264 29 C-263.43845089 28.99392447 -262.87690178 28.98784895 -262.29833603 28.98158932 C-243.44908341 28.77883965 -224.59963575 28.60023293 -205.75 28.4375 C-204.64554739 28.42792574 -204.64554739 28.42792574 -203.51878262 28.41815805 C-152.88286495 27.98090421 -102.2609335 28.02025023 -51.625 28.4375 C-50.84552694 28.44389795 -50.06605389 28.4502959 -49.26296043 28.45688772 C-29.50844983 28.6193961 -9.7541855 28.8016937 10 29 C9.67 20.09 9.34 11.18 9 2 C6.36 2 3.72 2 1 2 C0.67 1.34 0.34 0.68 0 0 Z " fill="#9BD7F7" transform="translate(318,434)"/>
<path d="M0 0 C0.33 0 0.66 0 1 0 C1 5.28 1 10.56 1 16 C-4.02929688 16.29296875 -4.02929688 16.29296875 -9.05859375 16.5859375 C-10.02925781 16.72257812 -10.99992187 16.85921875 -12 17 C-13.63379316 19.97949852 -13.63379316 19.97949852 -14 28 C-6.74 28 0.52 28 8 28 C8 28.33 8 28.66 8 29 C122.84 29.33 237.68 29.66 356 30 C356 25.38 356 20.76 356 16 C351.38 16 346.76 16 342 16 C342 15.67 342 15.34 342 15 C346.95 15 351.9 15 357 15 C357 20.28 357 25.56 357 31 C234.24 31 111.48 31 -15 31 C-15 25.72 -15 20.44 -15 15 C-10.05 15 -5.1 15 0 15 C0 10.05 0 5.1 0 0 Z " fill="#94D6F4" transform="translate(108,230)"/>
<path d="M0 0 C9.57 0 19.14 0 29 0 C29 4.95 29 9.9 29 15 C19.43 15 9.86 15 0 15 C0 10.05 0 5.1 0 0 Z " fill="#EFFAFD" transform="translate(311,184)"/>
<path d="M0 0 C1.16909562 3.60471151 1.00654604 6.80410048 0.75 10.5625 C0.64945312 12.26599609 0.64945312 12.26599609 0.546875 14.00390625 C-0.02354914 17.12901564 -0.5136364 18.12185976 -3 20 C-3.99 19.67 -4.98 19.34 -6 19 C-8.03697639 18.90262485 -10.07703914 18.86618862 -12.11633587 18.8613348 C-13.40419859 18.85586036 -14.6920613 18.85038591 -16.01895016 18.84474558 C-17.4564556 18.8436693 -18.89396112 18.84268462 -20.33146667 18.84178162 C-21.85198371 18.83721752 -23.37249948 18.83221772 -24.89301378 18.82681805 C-29.08201214 18.81321023 -33.27100237 18.80581095 -37.46001709 18.79939139 C-41.97330868 18.79139904 -46.48658328 18.77769727 -50.99986267 18.76467896 C-58.82299964 18.74289964 -66.64613831 18.72476048 -74.46928978 18.70907402 C-85.78033844 18.68638863 -97.09136829 18.65824396 -108.40240101 18.62875474 C-126.75255266 18.5810625 -145.102712 18.53780274 -163.45288086 18.49731445 C-181.28133746 18.45796783 -199.10978723 18.41654361 -216.93823242 18.37231445 C-218.03665862 18.36959018 -219.13508483 18.36686591 -220.26679667 18.36405908 C-225.77712307 18.35037974 -231.28744938 18.33665944 -236.79777563 18.32291877 C-282.53183618 18.20892835 -328.26591151 18.10212467 -374 18 C-374 17.67 -374 17.34 -374 17 C-251.24 17 -128.48 17 -2 17 C-2 11.72 -2 6.44 -2 1 C-1.34 0.67 -0.68 0.34 0 0 Z " fill="#5EAAD3" transform="translate(467,244)"/>
<path d="M0 0 C1.43653931 -0.00472824 1.43653931 -0.00472824 2.90209961 -0.009552 C3.94374268 -0.00752777 4.98538574 -0.00550354 6.05859375 -0.00341797 C7.12021729 -0.00437469 8.18184082 -0.00533142 9.27563477 -0.00631714 C11.52522847 -0.00699911 13.77482412 -0.00514366 16.02441406 -0.00097656 C19.48116446 0.00437143 22.93778492 -0.00092101 26.39453125 -0.00732422 C28.57421904 -0.00666344 30.75390675 -0.00538228 32.93359375 -0.00341797 C34.49605835 -0.00645432 34.49605835 -0.00645432 36.09008789 -0.009552 C37.04778076 -0.00639984 38.00547363 -0.00324768 38.9921875 0 C39.83966553 0.00079559 40.68714355 0.00159119 41.56030273 0.00241089 C43.49609375 0.12939453 43.49609375 0.12939453 44.49609375 1.12939453 C44.56853428 3.14903652 44.57986563 5.17106577 44.55859375 7.19189453 C44.54957031 8.29662109 44.54054688 9.40134766 44.53125 10.53955078 C44.51964844 11.39419922 44.50804687 12.24884766 44.49609375 13.12939453 C45.41132813 13.18998047 46.3265625 13.25056641 47.26953125 13.31298828 C48.45804687 13.39677734 49.6465625 13.48056641 50.87109375 13.56689453 C52.05445313 13.64810547 53.2378125 13.72931641 54.45703125 13.81298828 C57.49609375 14.12939453 57.49609375 14.12939453 59.49609375 15.12939453 C59.49609375 20.07939453 59.49609375 25.02939453 59.49609375 30.12939453 C74.67609375 30.12939453 89.85609375 30.12939453 105.49609375 30.12939453 C106.52138724 33.205275 107.04268931 36.11828701 107.55859375 39.31689453 C107.73519531 40.40357422 107.91179687 41.49025391 108.09375 42.60986328 C108.22652344 43.44130859 108.35929688 44.27275391 108.49609375 45.12939453 C111.46609375 45.12939453 114.43609375 45.12939453 117.49609375 45.12939453 C117.82609375 40.83939453 118.15609375 36.54939453 118.49609375 32.12939453 C118.82609375 32.12939453 119.15609375 32.12939453 119.49609375 32.12939453 C119.49609375 37.07939453 119.49609375 42.02939453 119.49609375 47.12939453 C114.54609375 47.12939453 109.59609375 47.12939453 104.49609375 47.12939453 C104.49609375 42.17939453 104.49609375 37.22939453 104.49609375 32.12939453 C88.98609375 32.12939453 73.47609375 32.12939453 57.49609375 32.12939453 C57.49609375 26.84939453 57.49609375 21.56939453 57.49609375 16.12939453 C52.54609375 16.12939453 47.59609375 16.12939453 42.49609375 16.12939453 C42.49609375 11.17939453 42.49609375 6.22939453 42.49609375 1.12939453 C27.31609375 1.12939453 12.13609375 1.12939453 -3.50390625 1.12939453 C-3.50390625 6.07939453 -3.50390625 11.02939453 -3.50390625 16.12939453 C-8.78390625 16.12939453 -14.06390625 16.12939453 -19.50390625 16.12939453 C-19.50390625 26.35939453 -19.50390625 36.58939453 -19.50390625 47.12939453 C-20.16390625 47.12939453 -20.82390625 47.12939453 -21.50390625 47.12939453 C-21.17390625 36.56939453 -20.84390625 26.00939453 -20.50390625 15.12939453 C-15.55390625 15.12939453 -10.60390625 15.12939453 -5.50390625 15.12939453 C-5.52453125 12.84001953 -5.54515625 10.55064453 -5.56640625 8.19189453 C-5.58761493 5.83773122 -5.57662366 3.48253008 -5.50390625 1.12939453 C-3.90338961 -0.47112211 -2.21544503 0.00207981 0 0 Z " fill="#73B5D4" transform="translate(116.50390625,370.87060546875)"/>
<path d="M0 0 C1.05617271 -0.0049926 1.05617271 -0.0049926 2.13368225 -0.01008606 C3.62581731 -0.0151578 5.11796375 -0.01749431 6.61010742 -0.01733398 C8.89716232 -0.01951884 11.18373378 -0.03766674 13.47070312 -0.05664062 C14.91796709 -0.05957479 16.36523336 -0.06155943 17.8125 -0.0625 C18.49900131 -0.06968552 19.18550262 -0.07687103 19.89280701 -0.08427429 C24.74383256 -0.06085494 24.74383256 -0.06085494 26.97265625 2.16796875 C28.24038486 6.47824603 28.04810149 10.71669986 27.97265625 15.16796875 C28.59914063 15.15636719 29.225625 15.14476562 29.87109375 15.1328125 C30.68835938 15.12378906 31.505625 15.11476563 32.34765625 15.10546875 C33.15976562 15.09386719 33.971875 15.08226562 34.80859375 15.0703125 C36.97265625 15.16796875 36.97265625 15.16796875 38.97265625 16.16796875 C38.97265625 16.82796875 38.97265625 17.48796875 38.97265625 18.16796875 C34.35265625 18.16796875 29.73265625 18.16796875 24.97265625 18.16796875 C24.97265625 13.21796875 24.97265625 8.26796875 24.97265625 3.16796875 C14.74265625 3.16796875 4.51265625 3.16796875 -6.02734375 3.16796875 C-6.02734375 8.11796875 -6.02734375 13.06796875 -6.02734375 18.16796875 C-11.30734375 18.16796875 -16.58734375 18.16796875 -22.02734375 18.16796875 C-22.02734375 23.44796875 -22.02734375 28.72796875 -22.02734375 34.16796875 C-32.25734375 34.16796875 -42.48734375 34.16796875 -53.02734375 34.16796875 C-53.02734375 39.11796875 -53.02734375 44.06796875 -53.02734375 49.16796875 C-57.97734375 49.16796875 -62.92734375 49.16796875 -68.02734375 49.16796875 C-68.02734375 48.83796875 -68.02734375 48.50796875 -68.02734375 48.16796875 C-62.08734375 47.67296875 -62.08734375 47.67296875 -56.02734375 47.16796875 C-55.36734375 42.21796875 -54.70734375 37.26796875 -54.02734375 32.16796875 C-44.78734375 31.83796875 -35.54734375 31.50796875 -26.02734375 31.16796875 C-25.69734375 26.87796875 -25.36734375 22.58796875 -25.02734375 18.16796875 C-21.50578411 15.82026232 -19.51962532 15.79127261 -15.33984375 15.54296875 C-13.57060547 15.43082031 -13.57060547 15.43082031 -11.765625 15.31640625 C-10.86199219 15.26742188 -9.95835937 15.2184375 -9.02734375 15.16796875 C-8.93646484 13.66943359 -8.93646484 13.66943359 -8.84375 12.140625 C-8.75996094 10.85027344 -8.67617188 9.55992187 -8.58984375 8.23046875 C-8.50863281 6.94269531 -8.42742187 5.65492188 -8.34375 4.328125 C-7.782654 -1.27590786 -4.78423069 0.00773247 0 0 Z " fill="#5BA9CE" transform="translate(475.02734375,399.83203125)"/>
<path d="M0 0 C8.58 0 17.16 0 26 0 C26 12 26 12 25 14 C16.42 14 7.84 14 -1 14 C-0.67 9.38 -0.34 4.76 0 0 Z " fill="#F0FAFD" transform="translate(471,404)"/>
<path d="M0 0 C1.61882584 0.00666183 1.61882584 0.00666183 3.27035522 0.01345825 C5.10202744 0.01368484 5.10202744 0.01368484 6.97070312 0.01391602 C8.30805625 0.02413001 9.64540772 0.03456201 10.98275757 0.04519653 C12.34753208 0.04892623 13.71230926 0.05177341 15.0770874 0.05377197 C18.6709023 0.0614119 22.2645558 0.08106331 25.85830688 0.10317993 C29.52476823 0.12363072 33.19125564 0.13277204 36.85775757 0.14285278 C44.05314369 0.164309 51.24839677 0.19844911 58.44369507 0.24050903 C59.58447164 3.66283875 59.54184623 6.32724121 59.50619507 9.92800903 C59.49717163 11.10750122 59.48814819 12.28699341 59.47885132 13.50222778 C59.46724976 14.4058606 59.45564819 15.30949341 59.44369507 16.24050903 C63.82303625 15.72092618 68.13172898 15.18375162 72.44369507 14.24050903 C72.44369507 14.90050903 72.44369507 15.56050903 72.44369507 16.24050903 C73.10369507 16.24050903 73.76369507 16.24050903 74.44369507 16.24050903 C76.57449198 20.50210285 75.48871823 26.64814605 75.44369507 31.24050903 C80.72369507 31.57050903 86.00369507 31.90050903 91.44369507 32.24050903 C91.44369507 36.86050903 91.44369507 41.48050903 91.44369507 46.24050903 C100.02369507 46.24050903 108.60369507 46.24050903 117.44369507 46.24050903 C117.44369507 42.28050903 117.44369507 38.32050903 117.44369507 34.24050903 C117.77369507 34.24050903 118.10369507 34.24050903 118.44369507 34.24050903 C118.44369507 38.53050903 118.44369507 42.82050903 118.44369507 47.24050903 C115.42922241 47.22310669 115.42922241 47.22310669 112.35385132 47.20535278 C110.41448083 47.19840163 108.47511003 47.19148507 106.53573608 47.18557739 C105.18449121 47.18053847 103.83325181 47.17370726 102.48202515 47.16506958 C100.54349073 47.15298484 98.60491707 47.14781075 96.66635132 47.14285278 C95.49854126 47.13761597 94.3307312 47.13237915 93.12753296 47.12698364 C90.52477956 46.93389408 90.52477956 46.93389408 89.44369507 48.24050903 C99.01369507 48.24050903 108.58369507 48.24050903 118.44369507 48.24050903 C118.44369507 48.57050903 118.44369507 48.90050903 118.44369507 49.24050903 C108.54369507 49.24050903 98.64369507 49.24050903 88.44369507 49.24050903 C88.44369507 43.96050903 88.44369507 38.68050903 88.44369507 33.24050903 C83.49369507 33.24050903 78.54369507 33.24050903 73.44369507 33.24050903 C73.44369507 28.29050903 73.44369507 23.34050903 73.44369507 18.24050903 C68.16369507 18.24050903 62.88369507 18.24050903 57.44369507 18.24050903 C57.44369507 12.96050903 57.44369507 7.68050903 57.44369507 2.24050903 C36.98369507 2.24050903 16.52369507 2.24050903 -4.55630493 2.24050903 C-2.55630493 0.24050903 -2.55630493 0.24050903 0 0 Z " fill="#67ADD5" transform="translate(581.5563049316406,353.7594909667969)"/>
<path d="M0 0 C0.66 0 1.32 0 2 0 C2.33 4.29 2.66 8.58 3 13 C7.95 13.33 12.9 13.66 18 14 C18.495 20.93 18.495 20.93 19 28 C22.3 28.33 25.6 28.66 29 29 C28.98839844 28.08476562 28.97679687 27.16953125 28.96484375 26.2265625 C28.95582031 25.03804687 28.94679688 23.84953125 28.9375 22.625 C28.92589844 21.44164062 28.91429687 20.25828125 28.90234375 19.0390625 C29 16 29 16 30 14 C40.89 14 51.78 14 63 14 C63.495 21.425 63.495 21.425 64 29 C68.95 29.33 73.9 29.66 79 30 C79 34.95 79 39.9 79 45 C83.95 45 88.9 45 94 45 C94 55.89 94 66.78 94 78 C93.67 78 93.34 78 93 78 C93 67.77 93 57.54 93 47 C88.05 47 83.1 47 78 47 C78 41.72 78 36.44 78 31 C72.72 31 67.44 31 62 31 C62 26.05 62 21.1 62 16 C51.77 16 41.54 16 31 16 C31 20.95 31 25.9 31 31 C26.05 31 21.1 31 16 31 C16 26.05 16 21.1 16 16 C10.72 16 5.44 16 0 16 C0 10.72 0 5.44 0 0 Z " fill="#65A9C9" transform="translate(674,183)"/>
<path d="M0 0 C10.23 0 20.46 0 31 0 C31 0.33 31 0.66 31 1 C36.94 1.33 42.88 1.66 49 2 C49 7.28 49 12.56 49 18 C53.89153471 17.9604321 53.89153471 17.9604321 58.78295898 17.90991211 C60.52221717 17.90275087 62.26145304 17.94975298 64 18 C65 19 65 19 65.09765625 22.16015625 C65.06510417 25.7734375 65.03255208 29.38671875 65 33 C69.95 33 74.9 33 80 33 C81.3306311 42.97973326 81.08778509 52.95348443 81 63 C84.3 63 87.6 63 91 63 C90.95875 61.7625 90.9175 60.525 90.875 59.25 C90.75148437 55.544531 91.19431894 54.61136212 93 51 C93 55.62 93 60.24 93 65 C88.38 65 83.76 65 79 65 C79 55.1 79 45.2 79 35 C73.72 35 68.44 35 63 35 C63 29.72 63 24.44 63 19 C58.05 19 53.1 19 48 19 C48 14.05 48 9.1 48 4 C32.49 4 16.98 4 1 4 C1.33 3.01 1.66 2.02 2 1 C1.34 0.67 0.68 0.34 0 0 Z " fill="#59A8CF" transform="translate(216,133)"/>
<path d="M0 0 C0.33 0 0.66 0 1 0 C1 4.95 1 9.9 1 15 C-3.95 15 -8.9 15 -14 15 C-14 20.28 -14 25.56 -14 31 C-29.18 31 -44.36 31 -60 31 C-60 35.95 -60 40.9 -60 46 C-70.23 46 -80.46 46 -91 46 C-91 45.67 -91 45.34 -91 45 C-81.43 45 -71.86 45 -62 45 C-62 39.39 -62 33.78 -62 28 C-60.67234619 27.97494385 -59.34469238 27.9498877 -57.97680664 27.92407227 C-53.06980055 27.83018481 -48.16294224 27.72991927 -43.25610352 27.62768555 C-41.12885993 27.58426577 -39.0015799 27.54259607 -36.87426758 27.50268555 C-33.82361849 27.44515293 -30.77315411 27.38141033 -27.72265625 27.31640625 C-26.76537125 27.29969376 -25.80808624 27.28298126 -24.8217926 27.26576233 C-23.94095505 27.24581711 -23.06011749 27.22587189 -22.15258789 27.20532227 C-21.37315323 27.18977798 -20.59371857 27.1742337 -19.79066467 27.15821838 C-17.97706647 27.19110881 -17.97706647 27.19110881 -17 26 C-16.79160985 24.35892758 -16.63248275 22.71143707 -16.5 21.0625 C-16.10977702 16.21955403 -16.10977702 16.21955403 -15 14 C-10.38 14 -5.76 14 -1 14 C-0.67 9.38 -0.34 4.76 0 0 Z " fill="#5EA9CC" transform="translate(626,168)"/>
<path d="M0 0 C0.33 0 0.66 0 1 0 C1 5.28 1 10.56 1 16 C-3.95 16 -8.9 16 -14 16 C-14 20.95 -14 25.9 -14 31 C-19.28 31 -24.56 31 -30 31 C-30 41.23 -30 51.46 -30 62 C-34.95 62 -39.9 62 -45 62 C-45 67.28 -45 72.56 -45 78 C-50.28 78 -55.56 78 -61 78 C-61 72.72 -61 67.44 -61 62 C-60.67 62 -60.34 62 -60 62 C-60 66.95 -60 71.9 -60 77 C-55.38 77 -50.76 77 -46 77 C-46 71.72 -46 66.44 -46 61 C-41.38 61 -36.76 61 -32 61 C-32 50.77 -32 40.54 -32 30 C-26.83608171 28.2786939 -21.40708764 28.94646448 -16 29 C-16 24.38 -16 19.76 -16 15 C-15.34 15 -14.68 15 -14 15 C-13.67 14.01 -13.34 13.02 -13 12 C-8.83861737 11.91840426 -5.0527516 12.01751476 -1 13 C-1.01160156 12.31292969 -1.02320313 11.62585938 -1.03515625 10.91796875 C-1.04417969 10.01691406 -1.05320312 9.11585938 -1.0625 8.1875 C-1.07410156 7.29417969 -1.08570313 6.40085937 -1.09765625 5.48046875 C-1 3 -1 3 0 0 Z " fill="#64ACCD" transform="translate(576,356)"/>
<path d="M0 0 C4.95 0 9.9 0 15 0 C15 4.95 15 9.9 15 15 C10.05 15 5.1 15 0 15 C0 10.05 0 5.1 0 0 Z " fill="#EAFBFD" transform="translate(752,230)"/>
<path d="M0 0 C5.28 0 10.56 0 16 0 C15.67 4.95 15.34 9.9 15 15 C10.05 14.67 5.1 14.34 0 14 C0 9.38 0 4.76 0 0 Z " fill="#EDFAFD" transform="translate(298,419)"/>
<path d="M0 0 C10.89 0 21.78 0 33 0 C34.44207941 2.88415883 34.09394887 5.41721528 34.0625 8.625 C34.05347656 9.81351563 34.04445313 11.00203125 34.03515625 12.2265625 C34.02355469 13.14179688 34.01195312 14.05703125 34 15 C35.35532837 15.03758423 35.35532837 15.03758423 36.73803711 15.07592773 C40.0796428 15.17087317 43.42106252 15.27011621 46.76245117 15.37231445 C48.2106424 15.4157163 49.65888654 15.45738744 51.10717773 15.49731445 C53.18489559 15.55489062 55.26234573 15.61862028 57.33984375 15.68359375 C59.21724243 15.73858032 59.21724243 15.73858032 61.13256836 15.79467773 C64 16 64 16 65 17 C65.24350096 19.80927959 65.38391001 22.61734162 65.5234375 25.43359375 C65.68070312 26.28050781 65.83796875 27.12742188 66 28 C69.03525486 30.02350324 70.19426202 30.32124018 73.6875 30.625 C74.49574219 30.69976562 75.30398438 30.77453125 76.13671875 30.8515625 C76.75160156 30.90054688 77.36648438 30.94953125 78 31 C78 31.33 78 31.66 78 32 C76.04174127 32.02694851 74.08337774 32.04637218 72.125 32.0625 C70.48917969 32.07990234 70.48917969 32.07990234 68.8203125 32.09765625 C66 32 66 32 64 31 C63.67 26.71 63.34 22.42 63 18 C52.77 17.67 42.54 17.34 32 17 C32 12.05 32 7.1 32 2 C21.77 2 11.54 2 1 2 C1 6.62 1 11.24 1 16 C0.67 16 0.34 16 0 16 C0 10.72 0 5.44 0 0 Z " fill="#62ABD2" transform="translate(371,197)"/>
<path d="M0 0 C0.66 0 1.32 0 2 0 C3.21693876 2.43387753 3.31959896 4.41838846 3.5625 7.125 C3.64628906 8.03507812 3.73007812 8.94515625 3.81640625 9.8828125 C3.87699219 10.58148438 3.93757812 11.28015625 4 12 C4.84304688 12.02578125 5.68609375 12.0515625 6.5546875 12.078125 C8.19824219 12.16320312 8.19824219 12.16320312 9.875 12.25 C10.96554687 12.29640625 12.05609375 12.3428125 13.1796875 12.390625 C14.11039063 12.59171875 15.04109375 12.7928125 16 13 C18 17 18 17 19 28 C32.86 28.495 32.86 28.495 47 29 C46.67 29.66 46.34 30.32 46 31 C36.1 31 26.2 31 16 31 C16 26.05 16 21.1 16 16 C10.72 16 5.44 16 0 16 C0 10.72 0 5.44 0 0 Z " fill="#65ABD0" transform="translate(732,387)"/>
<path d="M0 0 C10.23 0 20.46 0 31 0 C31 5.28 31 10.56 31 16 C35.95 16 40.9 16 46 16 C46 20.95 46 25.9 46 31 C45.34 31 44.68 31 44 31 C44 26.71 44 22.42 44 18 C43.01257813 17.93941406 42.02515625 17.87882812 41.0078125 17.81640625 C39.72648437 17.73261719 38.44515625 17.64882813 37.125 17.5625 C35.84882813 17.48128906 34.57265625 17.40007812 33.2578125 17.31640625 C30 17 30 17 28 16 C28 11.71 28 7.42 28 3 C19.75 3 11.5 3 3 3 C2.67 6.96 2.34 10.92 2 15 C1.01 15.495 1.01 15.495 0 16 C0 10.72 0 5.44 0 0 Z " fill="#D5F7FE" transform="translate(252,387)"/>
<path d="M0 0 C0.33 0 0.66 0 1 0 C1 4.95 1 9.9 1 15 C-3.95 15 -8.9 15 -14 15 C-14 25.23 -14 35.46 -14 46 C-19.28 46 -24.56 46 -30 46 C-30 45.34 -30 44.68 -30 44 C-24.06 43.505 -24.06 43.505 -18 43 C-17.31158745 35.1693072 -16.91998032 27.53824378 -17.16015625 19.6796875 C-17 17 -17 17 -15 14 C-10.41783485 12.47261162 -5.80886509 12.39602418 -1 12 C-0.67 8.04 -0.34 4.08 0 0 Z " fill="#5EA9D7" transform="translate(138,184)"/>
<path d="M0 0 C10.23 0 20.46 0 31 0 C31 3.96 31 7.92 31 12 C30.67 12 30.34 12 30 12 C29.855625 10.906875 29.71125 9.81375 29.5625 8.6875 C29.11711896 5.06877013 29.11711896 5.06877013 28 2 C20.08 2.33 12.16 2.66 4 3 C3.9071875 5.8771875 3.9071875 5.8771875 3.8125 8.8125 C3.70703125 12.08203125 3.70703125 12.08203125 3 15 C-0.47201656 17.9724902 -3.15800354 18.31476839 -7.625 18.0625 C-12.08622281 17.78458034 -12.08622281 17.78458034 -16 20 C-16 18.68 -16 17.36 -16 16 C-10.72 16 -5.44 16 0 16 C0 10.72 0 5.44 0 0 Z " fill="#DCFBFE" transform="translate(705,199)"/>
<path d="M0 0 C0.33 0 0.66 0 1 0 C1.02469321 4.2358357 1.04285671 8.47163342 1.05493164 12.70751953 C1.05996474 14.1489332 1.06679173 15.59034176 1.07543945 17.03173828 C1.08754983 19.10190085 1.09323847 21.17199601 1.09765625 23.2421875 C1.10289307 24.4885498 1.10812988 25.73491211 1.11352539 27.01904297 C1 30 1 30 0 32 C-9.57 32 -19.14 32 -29 32 C-29 37.28 -29 42.56 -29 48 C-33.95 47.67 -38.9 47.34 -44 47 C-44 46.67 -44 46.34 -44 46 C-39.71 46 -35.42 46 -31 46 C-31.02320313 45.01257813 -31.04640625 44.02515625 -31.0703125 43.0078125 C-31.08835937 41.72648437 -31.10640625 40.44515625 -31.125 39.125 C-31.14820313 37.84882813 -31.17140625 36.57265625 -31.1953125 35.2578125 C-31 32 -31 32 -29 30 C-26.86450195 29.78881836 -26.86450195 29.78881836 -24.23828125 29.83984375 C-23.28373047 29.85080078 -22.32917969 29.86175781 -21.34570312 29.87304688 C-19.84426758 29.90495117 -19.84426758 29.90495117 -18.3125 29.9375 C-16.35034021 29.9722855 -14.38809003 30.0023378 -12.42578125 30.02734375 C-11.55348877 30.04531006 -10.68119629 30.06327637 -9.7824707 30.08178711 C-6.50318595 29.9853968 -3.24772838 29.4639612 0 29 C0 19.43 0 9.86 0 0 Z " fill="#5BA9D4" transform="translate(95,386)"/>
<path d="M0 0 C14.85 0 29.7 0 45 0 C45 4.95 45 9.9 45 15 C44.34 15 43.68 15 43 15 C42.67 10.71 42.34 6.42 42 2 C28.47 2 14.94 2 1 2 C0.67 1.34 0.34 0.68 0 0 Z " fill="#C7F0FD" transform="translate(176,403)"/>
<path d="M0 0 C1.39456452 0.00667256 2.78911118 0.01863093 4.18359375 0.03515625 C4.89451172 0.03966797 5.60542969 0.04417969 6.33789062 0.04882812 C8.09899388 0.06064761 9.86005411 0.07858362 11.62109375 0.09765625 C11.62109375 0.42765625 11.62109375 0.75765625 11.62109375 1.09765625 C7.00109375 1.09765625 2.38109375 1.09765625 -2.37890625 1.09765625 C-2.37890625 11.32765625 -2.37890625 21.55765625 -2.37890625 32.09765625 C-7.32890625 32.09765625 -12.27890625 32.09765625 -17.37890625 32.09765625 C-17.37890625 27.14765625 -17.37890625 22.19765625 -17.37890625 17.09765625 C-17.04890625 17.09765625 -16.71890625 17.09765625 -16.37890625 17.09765625 C-16.37890625 21.38765625 -16.37890625 25.67765625 -16.37890625 30.09765625 C-12.41890625 30.09765625 -8.45890625 30.09765625 -4.37890625 30.09765625 C-4.38676147 28.78776733 -4.38676147 28.78776733 -4.39477539 27.45141602 C-4.41178376 24.22176352 -4.42433994 20.9921338 -4.43383789 17.76245117 C-4.43887705 16.36270397 -4.44570841 14.96296205 -4.4543457 13.56323242 C-4.46642945 11.55519848 -4.47160432 9.54712668 -4.4765625 7.5390625 C-4.48441772 5.72450562 -4.48441772 5.72450562 -4.49243164 3.87329102 C-4.32614651 -0.19229095 -4.16443846 0.12035949 0 0 Z " fill="#67ABC9" transform="translate(188.37890625,166.90234375)"/>
<path d="M0 0 C10.23 0 20.46 0 31 0 C31 0.33 31 0.66 31 1 C21.43 1 11.86 1 2 1 C2 6.28 2 11.56 2 17 C-3.28 17 -8.56 17 -14 17 C-14 16.01 -14 15.02 -14 14 C-9.71 14 -5.42 14 -1 14 C-1.020625 12.80375 -1.04125 11.6075 -1.0625 10.375 C-1.1262779 6.67588193 -0.63357302 3.80143815 0 0 Z " fill="#65A8CB" transform="translate(250,386)"/>
<path d="M0 0 C0.66 0 1.32 0 2 0 C2.33 4.29 2.66 8.58 3 13 C7.95 13.33 12.9 13.66 18 14 C18.495 20.93 18.495 20.93 19 28 C22.3 28.33 25.6 28.66 29 29 C29 24.71 29 20.42 29 16 C29.33 16 29.66 16 30 16 C30 20.62 30 25.24 30 30 C20.72265625 30.09765625 20.72265625 30.09765625 18 30 C15.53910088 27.53910088 16.22337672 20.03154122 16 17 C10.72 16.67 5.44 16.34 0 16 C0 10.72 0 5.44 0 0 Z " fill="#60AED4" transform="translate(674,183)"/>
<path d="M0 0 C3 2 3 2 3.6875 4.125 C4.08477078 7.77989122 4.06231163 11.32361387 4 15 C4.62648438 14.98839844 5.25296875 14.97679687 5.8984375 14.96484375 C6.71570313 14.95582031 7.53296875 14.94679688 8.375 14.9375 C9.18710937 14.92589844 9.99921875 14.91429687 10.8359375 14.90234375 C13 15 13 15 15 16 C15 16.66 15 17.32 15 18 C10.38 18 5.76 18 1 18 C1 13.05 1 8.1 1 3 C-9.23 3 -19.46 3 -30 3 C-30 2.67 -30 2.34 -30 2 C-20.1 2 -10.2 2 0 2 C0 1.34 0 0.68 0 0 Z " fill="#6CB0D4" transform="translate(499,400)"/>
<path d="M0 0 C10.23 0 20.46 0 31 0 C31 4.95 31 9.9 31 15 C41.23 15 51.46 15 62 15 C62 15.33 62 15.66 62 16 C51.44 16 40.88 16 30 16 C29 10 29 10 29 2 C15.14 1.505 15.14 1.505 1 1 C1 4.96 1 8.92 1 13 C0.67 13 0.34 13 0 13 C0 8.71 0 4.42 0 0 Z " fill="#B5E7FA" transform="translate(372,199)"/>
<path d="M0 0 C0.99 0.495 0.99 0.495 2 1 C2 4.96 2 8.92 2 13 C2.91523438 13.06058594 3.83046875 13.12117188 4.7734375 13.18359375 C5.96195313 13.26738281 7.15046875 13.35117187 8.375 13.4375 C9.55835938 13.51871094 10.74171875 13.59992188 11.9609375 13.68359375 C15 14 15 14 17 15 C17 19.95 17 24.9 17 30 C22.28 30 27.56 30 33 30 C33 30.33 33 30.66 33 31 C27.39 31 21.78 31 16 31 C16 26.05 16 21.1 16 16 C10.72 16 5.44 16 0 16 C0 10.72 0 5.44 0 0 Z " fill="#5AA4CB" transform="translate(159,371)"/>
<path d="M0 0 C22.91489362 -0.19148936 22.91489362 -0.19148936 32 1 C32 1.33 32 1.66 32 2 C21.77 2 11.54 2 1 2 C1 6.95 1 11.9 1 17 C-3.95 17 -8.9 17 -14 17 C-14 16.67 -14 16.34 -14 16 C-8.06 15.505 -8.06 15.505 -2 15 C-1.34 10.05 -0.68 5.1 0 0 Z " fill="#60ADD7" transform="translate(421,432)"/>
<path d="M0 0 C0.99 0.495 0.99 0.495 2 1 C2 4.96 2 8.92 2 13 C6.95 13.33 11.9 13.66 17 14 C17 24.56 17 35.12 17 46 C16.67 46 16.34 46 16 46 C16 36.1 16 26.2 16 16 C10.72 16 5.44 16 0 16 C0 10.72 0 5.44 0 0 Z " fill="#5CA4CE" transform="translate(314,418)"/>
<path d="M0 0 C0.66 0 1.32 0 2 0 C2 4.29 2 8.58 2 13 C6.95 13 11.9 13 17 13 C18.59412284 16.18824568 18.10174735 19.62896662 18.0625 23.125 C18.05798828 23.87910156 18.05347656 24.63320313 18.04882812 25.41015625 C18.03703499 27.27347127 18.01909942 29.13674555 18 31 C17.34 31 16.68 31 16 31 C15.67 26.05 15.34 21.1 15 16 C10.05 15.67 5.1 15.34 0 15 C0 10.05 0 5.1 0 0 Z " fill="#5FABD8" transform="translate(794,434)"/>
<path d="M0 0 C10.56 0 21.12 0 32 0 C33.28446919 2.56893838 33.32977144 4.76576337 33.5625 7.625 C33.64628906 8.62789062 33.73007812 9.63078125 33.81640625 10.6640625 C33.87699219 11.43492187 33.93757812 12.20578125 34 13 C34.62648438 13.04898438 35.25296875 13.09796875 35.8984375 13.1484375 C37.12433594 13.26058594 37.12433594 13.26058594 38.375 13.375 C39.18710937 13.44460937 39.99921875 13.51421875 40.8359375 13.5859375 C43 14 43 14 45 16 C40.38 16 35.76 16 31 16 C31 11.05 31 6.1 31 1 C20.77 1 10.54 1 0 1 C0 0.67 0 0.34 0 0 Z " fill="#5FA9CF" transform="translate(628,167)"/>
<path d="M0 0 C0.33 0 0.66 0 1 0 C1 9.57 1 19.14 1 29 C6.28 29 11.56 29 17 29 C17 33.62 17 38.24 17 43 C16.67 43 16.34 43 16 43 C15.95101562 42.28972656 15.90203125 41.57945312 15.8515625 40.84765625 C15.77679687 39.92855469 15.70203125 39.00945312 15.625 38.0625 C15.55539062 37.14597656 15.48578125 36.22945312 15.4140625 35.28515625 C15.27742187 34.53105469 15.14078125 33.77695313 15 33 C11.51088401 31.25544201 7.50258205 31.53762734 3.65234375 31.28125 C1 31 1 31 0 30 C-0.08783542 27.78144736 -0.10694609 25.56011504 -0.09765625 23.33984375 C-0.0962413 22.67537735 -0.09482635 22.01091095 -0.09336853 21.3263092 C-0.08775518 19.19666101 -0.07520054 17.06711661 -0.0625 14.9375 C-0.05748671 13.49674631 -0.05292351 12.05599097 -0.04882812 10.61523438 C-0.03778145 7.07678898 -0.02050792 3.53840461 0 0 Z " fill="#5DAAD5" transform="translate(533,216)"/>
<path d="M0 0 C0.66 0 1.32 0 2 0 C2 1.32 2 2.64 2 4 C-7.9 4 -17.8 4 -28 4 C-28.33 3.01 -28.66 2.02 -29 1 C-27.73555054 1.00785522 -27.73555054 1.00785522 -26.44555664 1.01586914 C-23.32772064 1.03287826 -20.20990823 1.04543406 -17.09204102 1.05493164 C-15.74079614 1.05997057 -14.38955674 1.06680177 -13.03833008 1.07543945 C-11.09979566 1.08752419 -9.161222 1.09269828 -7.22265625 1.09765625 C-6.05484619 1.10289307 -4.88703613 1.10812988 -3.68383789 1.11352539 C-1.08108449 1.30661495 -1.08108449 1.30661495 0 0 Z " fill="#59A5CF" transform="translate(168,179)"/>
<path d="M0 0 C3.61328125 0.03255208 7.2265625 0.06510417 10.83984375 0.09765625 C10.83984375 5.37765625 10.83984375 10.65765625 10.83984375 16.09765625 C6.87984375 16.09765625 2.91984375 16.09765625 -1.16015625 16.09765625 C-1.16015625 15.76765625 -1.16015625 15.43765625 -1.16015625 15.09765625 C2.13984375 15.09765625 5.43984375 15.09765625 8.83984375 15.09765625 C8.83984375 10.80765625 8.83984375 6.51765625 8.83984375 2.09765625 C6.17921875 2.22140625 6.17921875 2.22140625 3.46484375 2.34765625 C2.46710938 2.3940625 1.469375 2.44046875 0.44140625 2.48828125 C-2.31280395 2.8192651 -2.31280395 2.8192651 -3.51171875 5.14453125 C-3.72570312 5.7890625 -3.9396875 6.43359375 -4.16015625 7.09765625 C-4.20269981 5.09810879 -4.20096408 3.09723989 -4.16015625 1.09765625 C-3.16015625 0.09765625 -3.16015625 0.09765625 0 0 Z " fill="#E0FAFD" transform="translate(345.16015625,198.90234375)"/>
<path d="M0 0 C2 2 2 2 2 5 C2.66 5 3.32 5 4 5 C3.67 8.3 3.34 11.6 3 15 C6.96 15 10.92 15 15 15 C15 15.66 15 16.32 15 17 C10.05 17 5.1 17 0 17 C0 11.39 0 5.78 0 0 Z " fill="#5AA6CC" transform="translate(283,385)"/>
<path d="M0 0 C4.29 0 8.58 0 13 0 C13 0.33 13 0.66 13 1 C12.37351562 1.02578125 11.74703125 1.0515625 11.1015625 1.078125 C10.28429687 1.13484375 9.46703125 1.1915625 8.625 1.25 C7.81289062 1.29640625 7.00078125 1.3428125 6.1640625 1.390625 C3.88335299 1.78118081 3.88335299 1.78118081 2.86328125 3.68554688 C1.80459526 6.52387924 1.86270642 8.61888064 2.0234375 11.640625 C2.075 12.71054687 2.1265625 13.78046875 2.1796875 14.8828125 C2.24414062 15.99398438 2.30859375 17.10515625 2.375 18.25 C2.43171875 19.37664062 2.4884375 20.50328125 2.546875 21.6640625 C2.68819548 24.44336528 2.83959408 27.2217441 3 30 C2.01 30 1.02 30 0 30 C0 20.1 0 10.2 0 0 Z " fill="#E3FDFE" transform="translate(98,388)"/>
<path d="M0 0 C0.66 0.33 1.32 0.66 2 1 C2 4.96 2 8.92 2 13 C7.94 13.99 7.94 13.99 14 15 C14 15.33 14 15.66 14 16 C9.05 16 4.1 16 -1 16 C-1.020625 13.545625 -1.04125 11.09125 -1.0625 8.5625 C-1.071604 7.78849854 -1.08070801 7.01449707 -1.09008789 6.21704102 C-1.09724913 4.47778283 -1.05024702 2.73854696 -1 1 C-0.67 0.67 -0.34 0.34 0 0 Z " fill="#68ACD1" transform="translate(299,402)"/>
<path d="M0 0 C0.66 0 1.32 0 2 0 C2.02685095 2.47923801 2.04676547 4.9581884 2.0625 7.4375 C2.07087891 8.14455078 2.07925781 8.85160156 2.08789062 9.58007812 C2.09653588 11.38693559 2.05220011 13.19387603 2 15 C1 16 1 16 -2.78540039 16.11352539 C-4.47282729 16.11336622 -6.16025905 16.10766917 -7.84765625 16.09765625 C-9.17729652 16.09553383 -9.17729652 16.09553383 -10.53379822 16.09336853 C-13.37673254 16.08775215 -16.21958931 16.07519691 -19.0625 16.0625 C-20.98502491 16.05748711 -22.90755104 16.05292384 -24.83007812 16.04882812 C-29.55341549 16.03777741 -34.27669458 16.02050183 -39 16 C-39 15.67 -39 15.34 -39 15 C-26.13 15 -13.26 15 0 15 C0 9.74890778 -0.15487484 5.95001881 -1 1 C-0.67 0.67 -0.34 0.34 0 0 Z " fill="#C2DFF0" transform="translate(762,434)"/>
<path d="M0 0 C9.9 0.33 19.8 0.66 30 1 C30 1.66 30 2.32 30 3 C19.77 3 9.54 3 -1 3 C-0.67 2.01 -0.34 1.02 0 0 Z " fill="#5FA9D0" transform="translate(702,384)"/>
<path d="M0 0 C4.39656173 -0.02465504 8.7930872 -0.04283842 13.18969727 -0.05493164 C14.68644918 -0.05997121 16.18319616 -0.06680287 17.67993164 -0.07543945 C19.82699807 -0.08752159 21.97399962 -0.09323191 24.12109375 -0.09765625 C26.06133423 -0.10551147 26.06133423 -0.10551147 28.04077148 -0.11352539 C31 0 31 0 32 1 C32.24350096 3.80927959 32.38391001 6.61734162 32.5234375 9.43359375 C32.68070312 10.28050781 32.83796875 11.12742188 33 12 C36.03525486 14.02350324 37.19426202 14.32124018 40.6875 14.625 C41.49574219 14.69976562 42.30398438 14.77453125 43.13671875 14.8515625 C43.75160156 14.90054688 44.36648438 14.94953125 45 15 C45 15.33 45 15.66 45 16 C43.04174127 16.02694851 41.08337774 16.04637218 39.125 16.0625 C37.48917969 16.07990234 37.48917969 16.07990234 35.8203125 16.09765625 C33 16 33 16 31 15 C30.505 8.565 30.505 8.565 30 2 C15.15 1.505 15.15 1.505 0 1 C0 0.67 0 0.34 0 0 Z " fill="#51A1CA" transform="translate(404,213)"/>
<path d="M0 0 C9.9 0.33 19.8 0.66 30 1 C30 1.66 30 2.32 30 3 C19.77 3 9.54 3 -1 3 C-0.67 2.01 -0.34 1.02 0 0 Z " fill="#57A7CF" transform="translate(310,180)"/>
<path d="M0 0 C4.95 0 9.9 0 15 0 C15 4.95 15 9.9 15 15 C19.95 15 24.9 15 30 15 C30 15.33 30 15.66 30 16 C24.72 16 19.44 16 14 16 C13.67 11.38 13.34 6.76 13 2 C9.04 2 5.08 2 1 2 C0.67 1.34 0.34 0.68 0 0 Z " fill="#A5DCF8" transform="translate(779,434)"/>
<path d="M0 0 C4.95 0 9.9 0 15 0 C15 4.95 15 9.9 15 15 C14.01 15 13.02 15 12 15 C12.33 10.71 12.66 6.42 13 2 C8.71 2 4.42 2 0 2 C0 1.34 0 0.68 0 0 Z " fill="#D6F7FD" transform="translate(159,387)"/>
<path d="M0 0 C1.1446875 -0.01417969 2.289375 -0.02835938 3.46875 -0.04296875 C6.5 0.1875 6.5 0.1875 9.5 2.1875 C4.22 2.1875 -1.06 2.1875 -6.5 2.1875 C-6.5 3.8375 -6.5 5.4875 -6.5 7.1875 C-6.83 7.5175 -7.16 7.8475 -7.5 8.1875 C-7.86760731 10.51567964 -8.20241581 12.8493385 -8.5 15.1875 C-8.83 15.1875 -9.16 15.1875 -9.5 15.1875 C-9.5 10.5675 -9.5 5.9475 -9.5 1.1875 C-6.15109379 0.07119793 -3.52460739 0.01984576 0 0 Z " fill="#C8E1F3" transform="translate(729.5,228.8125)"/>
<path d="M0 0 C0.33 0.66 0.66 1.32 1 2 C0.07316406 2.06058594 -0.85367188 2.12117187 -1.80859375 2.18359375 C-3.00613281 2.26738281 -4.20367188 2.35117188 -5.4375 2.4375 C-6.63246094 2.51871094 -7.82742188 2.59992188 -9.05859375 2.68359375 C-11.88570244 2.67656114 -11.88570244 2.67656114 -13 4 C-13.23363881 5.84891946 -13.41303635 7.70488031 -13.5625 9.5625 C-13.706875 11.356875 -13.85125 13.15125 -14 15 C-9.38 15 -4.76 15 0 15 C0 15.33 0 15.66 0 16 C-4.95 16 -9.9 16 -15 16 C-15 11.05 -15 6.1 -15 1 C-10.05 0.67 -5.1 0.34 0 0 Z " fill="#CFE8FA" transform="translate(565,214)"/>
<path d="M0 0 C4.62 0 9.24 0 14 0 C14 4.95 14 9.9 14 15 C13.34 15 12.68 15 12 15 C11.93941406 14.15695312 11.87882813 13.31390625 11.81640625 12.4453125 C11.73261719 11.34960938 11.64882813 10.25390625 11.5625 9.125 C11.48128906 8.03445313 11.40007813 6.94390625 11.31640625 5.8203125 C11.16998297 3.05271029 11.16998297 3.05271029 10 1 C8.72125 1.20625 7.4425 1.4125 6.125 1.625 C3.9453125 1.9765625 3.9453125 1.9765625 2 2 C1.34 1.34 0.68 0.68 0 0 Z " fill="#E8FBFD" transform="translate(655,388)"/>
<path d="M0 0 C0.33 0 0.66 0 1 0 C1 4.95 1 9.9 1 15 C-3.95 15 -8.9 15 -14 15 C-11.41073669 12.41073669 -9.97294721 12.62601957 -6.375 12.375 C-4.60125 12.25125 -2.8275 12.1275 -1 12 C-0.67 8.04 -0.34 4.08 0 0 Z " fill="#64A6C6" transform="translate(138,184)"/>
<path d="M0 0 C0.33 0 0.66 0 1 0 C0.96519531 0.93972656 0.96519531 0.93972656 0.9296875 1.8984375 C0.91164062 2.71570313 0.89359375 3.53296875 0.875 4.375 C0.85179687 5.18710937 0.82859375 5.99921875 0.8046875 6.8359375 C0.78629949 9.21342243 0.78629949 9.21342243 3 11 C-2.28 11 -7.56 11 -13 11 C-13 10.01 -13 9.02 -13 8 C-8.71 8 -4.42 8 0 8 C0 5.36 0 2.72 0 0 Z " fill="#6EB3DD" transform="translate(249,392)"/>
<path d="M0 0 C0.33 0.99 0.66 1.98 1 3 C-13.85 2.505 -13.85 2.505 -29 2 C-29 1.67 -29 1.34 -29 1 C-25.66682397 0.83008756 -22.33343885 0.66466921 -19 0.5 C-18.06542969 0.45230469 -17.13085938 0.40460938 -16.16796875 0.35546875 C-10.77043673 0.0912539 -5.40391896 -0.05098037 0 0 Z " fill="#56AADB" transform="translate(282,384)"/>
<path d="M0 0 C0.66 0 1.32 0 2 0 C2.33 3.63 2.66 7.26 3 11 C6.3 11.33 9.6 11.66 13 12 C13 12.33 13 12.66 13 13 C8.71 13 4.42 13 0 13 C0 8.71 0 4.42 0 0 Z " fill="#5CA5CF" transform="translate(779,420)"/>
<path d="M0 0 C4.95 0 9.9 0 15 0 C15 4.95 15 9.9 15 15 C14.67 15 14.34 15 14 15 C13.93941406 14.40832031 13.87882813 13.81664062 13.81640625 13.20703125 C13.69072266 12.02173828 13.69072266 12.02173828 13.5625 10.8125 C13.48128906 10.03519531 13.40007813 9.25789063 13.31640625 8.45703125 C12.99402379 5.95359214 12.49501895 3.47509476 12 1 C8.04 1 4.08 1 0 1 C0 0.67 0 0.34 0 0 Z " fill="#C6F0FA" transform="translate(733,403)"/>
<path d="M0 0 C0.66 0.33 1.32 0.66 2 1 C1.85970581 3.1462026 1.71261836 5.29196218 1.5625 7.4375 C1.48128906 8.63246094 1.40007812 9.82742188 1.31640625 11.05859375 C1 14 1 14 0 15 C-1.51928038 15.07179964 -3.04167482 15.08392007 -4.5625 15.0625 C-5.38878906 15.05347656 -6.21507812 15.04445313 -7.06640625 15.03515625 C-7.70449219 15.02355469 -8.34257812 15.01195312 -9 15 C-9 14.34 -9 13.68 -9 13 C-6.69 13 -4.38 13 -2 13 C-1.34 8.71 -0.68 4.42 0 0 Z " fill="#58A9D9" transform="translate(234,402)"/>
<path d="M0 0 C4.95 0 9.9 0 15 0 C15 0.33 15 0.66 15 1 C14.14535156 1.04898437 13.29070312 1.09796875 12.41015625 1.1484375 C11.30542969 1.22320312 10.20070313 1.29796875 9.0625 1.375 C7.96035156 1.44460938 6.85820312 1.51421875 5.72265625 1.5859375 C4.37494141 1.79089844 4.37494141 1.79089844 3 2 C1.78306124 4.43387753 1.68040104 6.41838846 1.4375 9.125 C1.35371094 10.03507812 1.26992188 10.94515625 1.18359375 11.8828125 C1.12300781 12.58148438 1.06242187 13.28015625 1 14 C0.67 14 0.34 14 0 14 C0 9.38 0 4.76 0 0 Z " fill="#E5FEFE" transform="translate(454,419)"/>
<path d="M0 0 C4.62 0 9.24 0 14 0 C14 0.33 14 0.66 14 1 C13.21753906 1.06058594 12.43507812 1.12117188 11.62890625 1.18359375 C10.61699219 1.26738281 9.60507813 1.35117187 8.5625 1.4375 C7.55316406 1.51871094 6.54382813 1.59992188 5.50390625 1.68359375 C3.06359221 1.73211468 3.06359221 1.73211468 2 3 C1.76518307 5.18292774 1.58636677 7.37203174 1.4375 9.5625 C1.35371094 10.76003906 1.26992187 11.95757812 1.18359375 13.19140625 C1.12300781 14.11824219 1.06242188 15.04507812 1 16 C0.67 16 0.34 16 0 16 C0 10.72 0 5.44 0 0 Z " fill="#D7FCFE" transform="translate(237,403)"/>
<path d="M0 0 C0.66 0 1.32 0 2 0 C2.33 4.95 2.66 9.9 3 15 C2.01 15 1.02 15 0 15 C0 10.05 0 5.1 0 0 Z " fill="#D4EEFC" transform="translate(705,230)"/>
<path d="M0 0 C2.31 0 4.62 0 7 0 C6.071875 0.7734375 6.071875 0.7734375 5.125 1.5625 C2.52523258 4.54458615 1.88050877 7.18446201 1 11 C0.67 11 0.34 11 0 11 C0 7.37 0 3.74 0 0 Z " fill="#ABE0FC" transform="translate(109,230)"/>
<path d="M0 0 C0.33 0 0.66 0 1 0 C1 4.95 1 9.9 1 15 C0.34 15 -0.32 15 -1 15 C-2.01058283 11.76462662 -1.99200982 9.17014394 -1.625 5.8125 C-1.53476562 4.93207031 -1.44453125 4.05164063 -1.3515625 3.14453125 C-1 1 -1 1 0 0 Z " fill="#AFE2FB" transform="translate(766,245)"/>
<path d="M0 0 C3.3 0 6.6 0 10 0 C10 4.95 10 9.9 10 15 C9.67 15 9.34 15 9 15 C8.34 10.71 7.68 6.42 7 2 C4.69 1.67 2.38 1.34 0 1 C0 0.67 0 0.34 0 0 Z " fill="#DCFCFF" transform="translate(505,419)"/>
<path d="M0 0 C0.66 0 1.32 0 2 0 C2 4.95 2 9.9 2 15 C1.34 15 0.68 15 0 15 C0.020625 13.80375 0.04125 12.6075 0.0625 11.375 C0.07514354 7.81584403 -0.40078348 4.50969676 -1 1 C-0.67 0.67 -0.34 0.34 0 0 Z " fill="#CEE5F6" transform="translate(762,434)"/>
<path d="M0 0 C0.33 0 0.66 0 1 0 C1 2.97 1 5.94 1 9 C-3.62 9 -8.24 9 -13 9 C-13 8.67 -13 8.34 -13 8 C-7.555 7.505 -7.555 7.505 -2 7 C-1.34 4.69 -0.68 2.38 0 0 Z " fill="#58AAD8" transform="translate(110,377)"/>
<path d="M0 0 C3.96 0 7.92 0 12 0 C12 0.33 12 0.66 12 1 C11.22914063 1.12117188 10.45828125 1.24234375 9.6640625 1.3671875 C8.66117187 1.53476562 7.65828125 1.70234375 6.625 1.875 C5.12839844 2.11863281 5.12839844 2.11863281 3.6015625 2.3671875 C0.8574885 2.7958802 0.8574885 2.7958802 -1 5 C-0.67 3.35 -0.34 1.7 0 0 Z " fill="#C0D9E4" transform="translate(300,434)"/>
<path d="M0 0 C-0.66 0.66 -1.32 1.32 -2 2 C-3.2065625 1.9690625 -3.2065625 1.9690625 -4.4375 1.9375 C-7.06287821 1.73718542 -7.06287821 1.73718542 -8.8125 3.5 C-9.4003125 4.2425 -9.4003125 4.2425 -10 5 C-10.66 4.67 -11.32 4.34 -12 4 C-12 3.01 -12 2.02 -12 1 C-8.0186217 -0.3271261 -4.14954773 -0.06915913 0 0 Z " fill="#EAFDFA" transform="translate(560,388)"/>
<path d="M0 0 C1.16306443 3.54950034 0.92365049 6.55823948 0.5625 10.25 C0.40974609 11.86648437 0.40974609 11.86648437 0.25390625 13.515625 C0.17011719 14.33546875 0.08632813 15.1553125 0 16 C-0.33 16 -0.66 16 -1 16 C-1.33 11.05 -1.66 6.1 -2 1 C-1.34 0.67 -0.68 0.34 0 0 Z " fill="#4DA8D6" transform="translate(467,244)"/>
<path d="M0 0 C0.33 0.66 0.66 1.32 1 2 C-1.10405391 2.16808419 -3.20824758 2.33441948 -5.3125 2.5 C-6.48425781 2.5928125 -7.65601563 2.685625 -8.86328125 2.78125 C-10.905194 2.92364989 -12.9531279 3 -15 3 C-15 2.34 -15 1.68 -15 1 C-10.05 0.67 -5.1 0.34 0 0 Z " fill="#CAF2FE" transform="translate(565,214)"/>
<path d="M0 0 C4.62 0 9.24 0 14 0 C14 0.33 14 0.66 14 1 C13.24074219 1.04898437 12.48148438 1.09796875 11.69921875 1.1484375 C10.70535156 1.22320312 9.71148438 1.29796875 8.6875 1.375 C7.20830078 1.47941406 7.20830078 1.47941406 5.69921875 1.5859375 C2.78471567 1.83865472 2.78471567 1.83865472 0 4 C0 2.68 0 1.36 0 0 Z " fill="#DDE7EE" transform="translate(702,403)"/>
</svg>
